<?xml version="1.0" encoding="utf-8"?>
<!-- Generator: Adobe Illustrator 19.2.0, SVG Export Plug-In . SVG Version: 6.00 Build 0)  -->
<svg version="1.1" id="Laag_1" xmlns="http://www.w3.org/2000/svg" xmlns:xlink="http://www.w3.org/1999/xlink" x="0px" y="0px"
	 viewBox="0 0 438.1 160.1" style="enable-background:new 0 0 438.1 160.1;" xml:space="preserve">
<style type="text/css">
	.st0{clip-path:url(#SVGID_2_);fill:#232323;}
	.st1{clip-path:url(#SVGID_4_);fill:#E93F3C;}
	.st2{fill:#FFFFFF;}
	.st3{fill:#232323;}
</style>
<g>
	<g>
		<defs>
			<rect id="SVGID_1_" x="24.1" y="20.6" width="120.4" height="102.9"/>
		</defs>
		<clipPath id="SVGID_2_">
			<use xlink:href="#SVGID_1_"  style="overflow:visible;"/>
		</clipPath>
		<path class="st0" d="M24.5,97.4c2.9-2.2,6.5-3.5,10.4-3.5c3.7,0,7.1,1.2,10,3.2V56.5l11.4,12.1c1.9,2,4.6,3.2,7.4,3.2
			c2.8,0,5.5-1.2,7.4-3.2l21.1-22.4l28.2,29.9l-25.9,27.7c-3.8,4.1-3.6,10.5,0.5,14.4c4.1,3.8,10.5,3.6,14.4-0.5L141.7,83
			c3.7-3.9,3.7-10,0-13.9L99.6,24.3c-1.9-2-4.6-3.2-7.4-3.2c-2.8,0-5.5,1.2-7.4,3.2L63.7,46.7L42.1,23.8c-2.9-3-7.3-4-11.2-2.5
			c-3.9,1.5-6.4,5.3-6.4,9.5"/>
	</g>
	<g>
		<defs>
			<rect id="SVGID_3_" x="24.1" y="20.6" width="120.4" height="102.9"/>
		</defs>
		<clipPath id="SVGID_4_">
			<use xlink:href="#SVGID_3_"  style="overflow:visible;"/>
		</clipPath>
		<path class="st1" d="M24.1,113c0-5.8,4.7-10.5,10.5-10.5s10.5,4.7,10.5,10.5c0,5.8-4.7,10.5-10.5,10.5S24.1,118.8,24.1,113"/>
	</g>
</g>
<path class="st2" d="M515.9,407.9c0.1,4.8-0.5,9.6-2.4,14.1c-0.5,1.1-1.3,2.2-2.1,3.1c-2.9,3-6.2,2.3-7.6-1.7
	c-1.7-4.8-2.2-9.7-1.3-14.8c0.4-2.6,0.8-5.2,1.5-7.7c0.7-2.3,1.8-4.5,4.4-5.3c2.4-0.7,4.7,0,5.7,2.3c0.9,2.1,1.4,4.4,1.9,6.7
	C516.1,405.6,515.9,406.8,515.9,407.9z"/>
<path class="st2" d="M543.9,413.1c0-4.9,0.6-9.6,2.8-14c1.2-2.4,4-4.5,6.8-3.6c1.4,0.5,2.3,1.3,2.7,2.6c1.4,3.8,1.9,7.8,1.5,11.8
	c-0.3,3-0.8,6.1-1.5,9.1c-0.5,2.4-1.4,4.6-3.3,6.4c-2.5,2.4-5.6,1.9-7.1-1.3c-1.4-2.9-1.9-6-1.9-9.1
	C543.9,414.4,543.9,413.8,543.9,413.1z"/>
<path class="st2" d="M631.2,408.8c-0.5,3.4-0.8,6.9-1.6,10.3c-0.5,2.1-1.7,4-2.9,5.8c-1,1.5-2.7,2.4-4.6,2c-1.9-0.4-3-1.9-3.4-3.6
	c-0.6-2.4-1.2-4.9-1.3-7.4c-0.1-3.8-0.1-7.6,0.5-11.4c0.4-2.4,1.5-4.9,2.8-6.9c2.6-3.8,7.7-2.7,9,1.8c0.4,1.5,0.8,3,1,4.6
	c0.2,1.6,0,3.1,0,4.7C630.9,408.7,631.1,408.7,631.2,408.8z"/>
<path class="st2" d="M558.7,438.4c-0.2,3.7-0.3,7.4-0.5,11.2c-0.2,2.9-0.8,5.7-2.2,8.3c-1.6,3.1-5.5,3.9-7.8,1.8
	c-1.5-1.3-1.7-4-1.1-6c1.3-4.9,4.6-8.6,7.9-12.2c1-1.2,2.2-2.2,3.4-3.2C558.5,438.3,558.6,438.3,558.7,438.4z"/>
<path class="st3" d="M423,103c-1.3-0.1-2.1,0.9-2.6,3c-0.4,1.6-0.8,3.3-1.3,4.8c-0.5,1.3-1.2,2.7-2.8,2.6c-1.6-0.1-2.2-1.5-2.5-2.8
	c-0.6-3.1-1.4-6.3-1.5-9.4c-0.1-6.4,0.1-12.8,0.3-19.2c0.1-2.1-0.8-3.6-2.4-4.6c-1.1-0.7-2.3-1.2-3.6-1.6c-4.5-1.5-6.1-0.7-7.9,3.7
	c0,0,0,0.1-0.1,0.1c-1.1,3.3-2.3,6.5-3.3,9.8c-0.7,2.2-1.2,4.5-1.8,6.7c-0.3-0.5-0.4-1-0.4-1.5c-0.1-4-0.3-7.9-0.3-11.9
	c0.1-4.8-3-6.8-7-7.6c-2.4-0.4-4.2,0.3-5.2,2.6c-0.8,1.8-1.6,3.5-2.3,5.3c-0.8,2.2-1.5,4.4-2.2,6.6c-0.4-0.6-0.5-1.1-0.5-1.7
	c0.1-2.9,0.2-5.8,0.2-8.7c0-1.7-0.9-2.8-2.5-3.2c-1.1-0.3-2.2-0.7-3.4-0.9c-3.6-0.5-4.3,0.2-4.3,3.4c0,7.9,0.1,15.8-0.2,23.6
	c-0.1,3.8-1.5,7.3-3.9,10.2c-1.8,2.1-3.8,1.7-4.7-0.9c-0.5-1.5-0.9-3.2-0.9-4.8c-0.1-8.6,0-17.2,0.1-25.8c0-3-0.1-3.6-3-4.6
	c-0.9-0.3-2-0.6-3-0.7c-1.8-0.1-3.7-0.3-4.3,2.3c-0.4-0.3-0.6-0.4-0.7-0.5c-3.7-4-10.7-4.4-14.8-0.8c-3.7,3.2-5.8,7.4-7,12.1
	c-1.5,6-1.6,12-0.8,18.1c0.3,2.4-0.6,4.5-2.4,6.1c-1.3,1.1-3,1-4-0.4c-0.5-0.7-0.9-1.5-1.2-2.3c-1.2-3.5-1.5-7.1-1.1-10.7
	c0.7-5,1.6-10,2.6-15c0.3-1.6,0-3-0.9-4.3c-1.3-2-3.3-2.1-5.3-1.9c-2.6,0.3-5.2,0.8-7.8,1.3c-1,0.2-1.4-0.1-1.2-1.1
	c0.8-5-4-6.6-7.8-4.9c-4.2,1.9-5.7,8.2-2.5,11.8c0.4,0.5,0.9,1.4,0.7,1.9c-1.3,3.6-2.5,7.3-4.1,10.8c-1.3,2.8-3,5.4-4.5,8
	c-0.1,0-0.3-0.1-0.4-0.1c0-0.5-0.1-0.9-0.1-1.4c0.1-8.3,0.2-16.7,0.3-25c0-1.4-0.4-2.5-1.8-2.9c-1.5-0.5-3.1-0.8-4.7-1.1
	c-1.7-0.3-3.2,0.1-3.9,2c-0.3-0.3-0.6-0.4-0.8-0.6c-3.4-3.8-9.5-3.8-13.3-1.5c-4,2.4-5.9,6.4-7.4,10.5c-2.4,6.2-2.4,12.7-1.8,19.2
	c0.3,3-0.9,5.2-2.6,7.4c-0.8,1.1-2.6,1.2-3.5,0.2c-0.7-0.8-1.4-1.9-1.5-2.9c-0.5-3-0.9-6-0.9-9.1c0-7,0.3-13.9,0.5-20.9
	c0-0.8-0.1-1.9-0.6-2.4c-1.6-1.5-3.6-1.9-5.8-2c-1.7-0.1-3.3,0-4,2c-0.4-0.3-0.6-0.5-0.9-0.6c-1.7-0.9-3.3-2.2-5.1-2.6
	c-5.6-1.3-9.6,1.5-12.7,5.8c-3.8,5.4-4.8,11.6-5.1,17.9c-0.1,3.2-0.8,6.2-2.4,8.9c-1,1.7-2.4,3.4-3.9,4.7c-1.5,1.3-2.7,0.8-3.2-1
	c-0.7-2.5-1.5-5.1-1.5-7.7c0-9.1,0.4-18.2,0.5-27.3c0-1.1,0.4-1.5,1.4-1.5c2.9,0,5.9-0.2,8.8-0.2c1.5,0,2.4-0.6,3-1.9
	c1.5-3.1,0.5-5-2.8-5.2c-2.9-0.2-5.9-0.4-8.8-0.5c-1.1-0.1-1.5-0.4-1.4-1.6c0.3-2.7,0.3-5.5,0.5-8.2c0.1-1.5-0.4-2.5-1.8-2.9
	c-2-0.6-4.1-1.3-6.1-1.7c-1.9-0.4-3.1,0.6-3.2,2.7c-0.2,3.2-0.4,6.4-0.5,9.6c0,1.3-0.5,1.8-1.8,1.7c-2-0.2-4.1-0.2-6.1-0.3
	c-1.2-0.1-2.2,0.1-2.7,1.3c-0.5,1.5-1,3-1.1,4.5c-0.1,1.5,0.7,2.2,2.3,2.2c2.4,0.1,4.9,0.2,7.3,0.2c1.3,0,1.6,0.5,1.6,1.7
	c-0.2,5.1-0.4,10.3-0.2,15.4c0.1,3.7-0.4,7.2-2.3,10.4c-1,1.7-2.2,3.3-3.3,4.9c-0.4-0.4-0.5-0.7-0.5-0.9c0.1-4.2-2-7.3-4.9-9.9
	c-2.5-2.2-5.2-4.2-8-6.1c-1.3-0.9-1.4-1.4-0.5-2.7c1.8-2.6,3.6-5.2,3.4-8.6c-0.1-2.1-1.4-3.6-3.4-3.9c-4.5-0.7-8,1-10.4,4.8
	c-2.1,3.3-2.8,6.9-0.3,10.4c0.4,0.6,5.5,5.8,6.1,6.3c1.8,1.7,3.7,3.4,5.3,5.2c1.8,2,2.9,4.4,2.6,7.3c-0.3,3.6-3,5.2-6.3,3.6
	c-1.1-0.6-2.2-1.3-3.2-2.1c-1.6-1.1-3.2-1.1-4.5,0.3c-0.8,0.8-1.5,1.8-1.9,2.9c-1.2,2.7-0.8,3.9,1.9,5.3c1.3,0.6,2.7,1.1,4.1,1.5
	c3.8,0.9,7.6,1,11.3,0.1c5.8-1.4,9.7-5.3,12.8-10.2c0.7-1.2,1.4-2.3,2.2-3.6c0.7,2.4,1.3,4.7,2.1,6.8c1.4,3.5,3.7,6.3,7.5,7.2
	c4.3,1,7.5-0.9,10-4.3c1.2-1.6,2.3-3.4,3.5-5.3c2.2,5,5,9.3,11.2,9.7c5.9,0.3,9.9-2.8,13.3-7.5c1.5,4.5,4.3,7.1,8.9,7.5
	c4.7,0.4,7.6-2.3,10-6.1c2.6,3.9,5.8,6.3,10.5,6.2c4.5-0.1,7.9-2.2,11.1-5.3c0,1-0.1,2.1-0.7,2.6c-2.8,2.7-5.7,5.2-8.5,7.8
	c-3.3,3-6.4,6.2-8.5,10.3c-2,4-1.6,9.5,0.9,12.4c3.7,4.3,10.9,5.6,15.9,3.2c5.4-2.6,8-7.2,9.3-12.7c1.4-6.5,1.3-13,1-19.6
	c-0.1-1.3,0-2.9,0.6-3.9c1.2-2.1,3-3.8,4.4-5.8c4.2-5.7,7.6-11.9,10.1-18.5c1.6-4,1.4-4,5.8-4.2c0.3,0,0.6,0,0.9-0.1
	c0.9-0.2,1.1,0.3,0.9,1c-0.2,0.8-0.5,1.6-0.6,2.4c-0.9,5.1-1.5,10.2-1.1,15.3c0.4,4.4,1.6,8.6,4.8,11.9c3.5,3.5,9.5,4.6,13.2,1.2
	c1.2-1.1,2.2-2.3,3.4-3.6c2.7,4.1,6.4,6.1,11.4,5.6c4.9-0.5,8.2-3.4,11.1-7.4c1.6,3.9,4,6.7,8.1,7.4c4.1,0.7,7.4-0.7,9.6-4.7
	c1.2,3.9,2.2,4.7,6.1,4.8c1.1,0,2.1,0,3.2-0.1c1.6-0.1,2.4-0.8,2.6-2.4c0.2-1.2,0.3-2.4,0.3-3.6c-0.3-7.4,1.1-14.5,3.7-21.4
	c0.6-1.6,1.4-3.1,2.1-4.6c0.4,0.3,0.5,0.5,0.5,0.7c0.2,7.4,0.7,14.7,2.1,21.9c0.9,4.4,3.4,6.5,7.9,6.2c1.6-0.1,2.7-1.1,2.9-2.7
	c0.1-1.4,0.3-2.8,0.4-4.2c0.5-7.1,2.5-13.8,4.9-20.5c0.1-0.2,0.1-0.4,0.1-0.6c0.4,0.6,0.5,0.8,0.5,1c0.2,5.3,0.2,10.7,0.6,16
	c0.3,5,1.8,9.6,6.1,12.8c2.7,2.1,8.8,2.3,11.4-0.7c2.9-3.4,3.9-7.4,4.2-11.7C425.2,104.3,424.3,103.1,423,103z M228.7,108.9
	c-0.5,1.1-1.3,2.2-2.1,3.1c-2.9,3-6.2,2.3-7.6-1.7c-1.7-4.8-2.2-9.7-1.3-14.8c0.4-2.6,0.8-5.2,1.5-7.7c0.7-2.3,1.8-4.5,4.4-5.3
	c2.4-0.7,4.7,0,5.7,2.3c0.9,2.1,1.4,4.4,1.9,6.7c0.2,1.1,0,2.2,0,3.3C231.2,99.6,230.6,104.4,228.7,108.9z M273,96.9
	c-0.3,3-0.8,6.1-1.5,9.1c-0.5,2.4-1.4,4.6-3.3,6.4c-2.5,2.4-5.6,1.9-7.1-1.3c-1.4-2.9-1.9-6-1.9-9.1c0-0.7,0-1.3,0-2
	c0-4.9,0.6-9.6,2.8-14c1.2-2.4,4-4.5,6.8-3.6c1.4,0.5,2.3,1.3,2.7,2.6C272.9,88.9,273.4,92.9,273,96.9z M273.4,136.4
	c-0.2,2.9-0.8,5.7-2.2,8.3c-1.6,3.1-5.5,3.9-7.8,1.8c-1.5-1.3-1.7-4-1.1-6c1.3-4.9,4.6-8.6,7.9-12.2c1-1.2,2.2-2.2,3.4-3.2
	c0.1,0.1,0.3,0.1,0.4,0.2C273.8,129,273.6,132.7,273.4,136.4z M344.8,105.9c-0.5,2.1-1.7,4-2.9,5.8c-1,1.5-2.7,2.4-4.6,2
	c-1.9-0.4-3-1.9-3.4-3.6c-0.6-2.4-1.2-4.9-1.3-7.4c-0.1-3.8-0.1-7.6,0.5-11.4c0.4-2.4,1.5-4.9,2.8-6.9c2.6-3.8,7.7-2.7,9,1.8
	c0.4,1.5,0.8,3,1,4.6c0.2,1.6,0,3.1,0,4.7l0.4,0.1C345.9,99.1,345.6,102.6,344.8,105.9z"/>
</svg>
